<?xml version="1.0" encoding="utf-8"?>
<!-- Generator: Adobe Illustrator 15.0.0, SVG Export Plug-In . SVG Version: 6.00 Build 0)  -->
<!DOCTYPE svg PUBLIC "-//W3C//DTD SVG 1.1//EN" "http://www.w3.org/Graphics/SVG/1.1/DTD/svg11.dtd">
<svg version="1.1" id="Layer_1" xmlns="http://www.w3.org/2000/svg" xmlns:xlink="http://www.w3.org/1999/xlink" x="0px" y="0px"
	 width="628.201px" height="111px" viewBox="0 0 628.201 111" enable-background="new 0 0 628.201 111" xml:space="preserve">
<g>
	<polygon fill="#333333" points="0.5,0.828 7.855,111.179 30.776,111.179 40.354,81.763 49.077,111.179 72.511,111.179 
		81.064,0.828 58.486,0.828 54.55,45.374 42.92,0.828 39.327,0.828 27.013,45.374 23.592,0.828 	"/>
	<path fill="#333333" d="M122.813,0.575c-22.207,0-40.209,24.793-40.209,55.377c0,30.586,18.003,55.385,40.209,55.385
		c22.207,0,40.209-24.799,40.209-55.385S145.02,0.575,122.813,0.575z M123.067,90.714c-7.747,0-14.026-15.619-14.026-34.887
		c0-19.27,6.279-34.89,14.026-34.89c7.747,0,14.026,15.621,14.026,34.89C137.093,75.095,130.813,90.714,123.067,90.714z"/>
	<path fill="#333333" d="M214.137,63.058c0,0,20.355-1.357,22.065-30.605c1.709-29.244-19.327-31.625-19.327-31.625h-47.895v110.351
		h22.064V69.181l21.04,41.998h27.709L214.137,63.058z M212.769,32.198c-0.512,11.309-9.407,11.139-9.407,11.139h-12.145V21.062
		h11.973C203.19,21.062,213.282,20.892,212.769,32.198z"/>
	<polygon fill="#333333" points="245.926,1.083 245.926,111.435 271.24,111.435 271.24,67.563 291.767,111.435 319.988,111.435 
		294.331,57.022 319.988,1.083 292.279,1.083 271.582,46.649 271.41,1.083 	"/>
	<polygon fill="#333333" points="440.609,0.66 440.609,45.714 418.715,45.714 418.715,0.66 393.914,0.66 393.914,111.179 
		418.715,111.179 418.715,66.628 440.609,66.628 440.609,111.179 465.41,111.179 465.41,0.66 	"/>
	<path fill="#333333" d="M627.393,29.733c-1.711-27.715-24.287-28.906-24.287-28.906h-20.014h-24.973v110.351h24.973V66.288
		c0,0,17.447-0.166,22.148-0.68C609.947,65.099,629.104,57.45,627.393,29.733z M594.207,45.714h-10.945V23.103
		c0,0,12.316,0,12.488,0s5.986-0.17,6.156,11.307C602.076,45.888,594.207,45.714,594.207,45.714z"/>
	<path fill="#333333" d="M511.773,0.575c-22.207,0-40.207,24.793-40.207,55.377c0,30.586,18,55.385,40.207,55.385
		s40.211-24.799,40.211-55.385S533.98,0.575,511.773,0.575z M512.027,90.714c-7.746,0-14.025-15.619-14.025-34.887
		c0-19.27,6.279-34.89,14.025-34.89c7.748,0,14.027,15.621,14.027,34.89C526.055,75.095,519.775,90.714,512.027,90.714z"/>
	<path fill="#333333" d="M356.891,91.876c1.975-0.531,7.563-4.543,8.664-9.301c1-4.338-0.471-7.826-2.283-10.102
		c-4.303-5.402-16.326-8.855-16.326-8.855c-19.344-7.193-19.912-10.848-23.73-15.863c-4.971-6.521-3.064-19.955-3.064-19.955
		s3.465-21.53,28.072-26.527c24.604-4.995,41.582,15.847,41.582,15.847l-11.436,18.084c-0.863-2.412-4.852-7.404-13.512-12.574
		c-8.664-5.166-18.889-2.066-21.141,7.064C341.461,38.821,351,43.351,351,43.351s16.631,5.291,22.086,8.438
		c1.76,0.924,14.541,6.348,16.719,22.861c2.771,21.016-14.455,29.881-14.455,29.881s-7.037,5.395-17.768,6.637
		c-6.439,0.744-13.852,0.377-20.602-2.512c-10.242-4.379-15.666-10.875-19.604-15.918l11.092-16.191c0,0,8.283,8.209,11.691,10.742
		C346.318,91.876,350.479,93.599,356.891,91.876z"/>
</g>
</svg>
